# generated from PmQm by Jehee Lee
:FULLY-SPECIFIED
:DEGREES
436
root -40.4292 38.4136 -19.2174 -3.16138 -9.27631 0.757599
RightUpLeg -17.5488 0.171335 -7.64864
RightLeg 10.641 -1.87673 -3.01048
RightFoot 3.79277 -0.904991 6.98905
RightToes -0.000541893 -0.000659172 -0.000493268
Spine 1.2542 0.445719 1.50405
Spine1 2.49645 0.887838 2.45673
HEad 27.6965 5.44844 -13.0301
LeftShoulder1 -3.88251e-019 -0 -3.92111e-022
LeftArm -32.6556 2.8765 -86.5039
LeftForeArm 37.1445 -6.44106 -4.92932
LeftHand -0.719043 -4.84281 8.44661
RightShoulder 7.45443e-017 -2.42657e-020 1.96277e-018
RightArm -26.587 -12.7649 73.5287
RightForeArm 30.1789 3.3389 5.71423
RightHand -1.36509 9.90147 -10.7093
LeftUpLeg -2.91462 -2.12552 -8.83041
LeftLeg 16.0972 -5.14871 -1.41644
LeftFoot -10.2458 -0.065897 13.2837
LeftToes 3.91355e-005 3.11907e-005 -4.10385e-006
437
root -41.0209 38.3363 -18.3966 -2.57372 -6.19263 1.26495
RightUpLeg -17.9687 -4.62279 -7.09216
RightLeg 2.68089 7.26908 -2.73768
RightFoot 2.38554 -1.15879 9.89506
RightToes -0.000541893 -0.000659172 -0.000493268
Spine 1.05864 0.370607 1.65473
Spine1 2.02312 0.688324 1.81111
HEad 27.597 5.17588 -12.7518
LeftShoulder1 -3.88251e-019 -0 -3.92111e-022
LeftArm -32.5906 3.74207 -86.5857
LeftForeArm 38.0964 -6.76579 -5.11828
LeftHand -0.7276 -4.64309 8.7015
RightShoulder 7.45443e-017 -2.42657e-020 1.96277e-018
RightArm -26.8804 -12.5151 73.3299
RightForeArm 30.7929 2.84157 5.16906
RightHand -1.29654 9.58238 -10.3971
LeftUpLeg -2.38539 -1.8856 -8.44851
LeftLeg 17.111 -8.31632 -2.5682
LeftFoot -11.8712 0.132625 13.0422
LeftToes 3.91355e-005 3.11907e-005 -4.10385e-006
438
root -41.6693 38.2429 -17.4236 -2.08837 -4.10428 1.50107
RightUpLeg -19.3286 -4.38271 -7.08376
RightLeg 2.42799 12.9573 -1.84132
RightFoot -2.72026 -1.07012 14.0051
RightToes -0.000541893 -0.000659172 -0.000493268
Spine 0.856709 0.440651 1.68078
Spine1 1.57788 0.805443 1.59772
HEad 27.8191 5.86295 -12.8088
LeftShoulder1 -3.88251e-019 -0 -3.92111e-022
LeftArm -33.1588 4.72583 -86.4467
LeftForeArm 37.2813 -4.77596 -4.15806
LeftHand -0.738422 -4.60722 8.85578
RightShoulder 7.45443e-017 -2.42657e-020 1.96277e-018
RightArm -27.3024 -12.2268 73.1483
RightForeArm 30.9031 2.35515 4.60555
RightHand -1.3837 9.63406 -11.0276
LeftUpLeg -1.56478 -1.46574 -7.56095
LeftLeg 18.255 -10.7279 -3.60354
LeftFoot -13.9217 0.373936 12.795
LeftToes 3.91355e-005 3.11907e-005 -4.10385e-006
439
root -42.3377 38.2125 -16.338 -1.81224 -2.92273 1.25049
RightUpLeg -18.7026 -3.53276 -5.86005
RightLeg 3.21214 18.8462 -1.1796
RightFoot -1.71979 -1.44141 16.7751
RightToes -0.000541893 -0.000659172 -0.000493268
Spine 0.720998 0.488948 1.89386
Spine1 1.29205 0.930209 1.91116
HEad 28.0764 7.61876 -12.9134
LeftShoulder1 -3.88251e-019 -0 -3.92111e-022
LeftArm -34.2563 6.11807 -85.852
LeftForeArm 35.8471 -1.01242 -2.29404
LeftHand -0.729116 -4.59742 8.75591
RightShoulder 7.45443e-017 -2.42657e-020 1.96277e-018
RightArm -27.5692 -11.6179 73.2106
RightForeArm 30.7995 1.78676 4.00414
RightHand -1.40346 9.68981 -11.1402
LeftUpLeg 0.0371968 -1.8828 -6.22392
LeftLeg 18.5172 -11.7108 -4.02241
LeftFoot -15.783 0.559733 11.9309
LeftToes 3.91355e-005 3.11907e-005 -4.10385e-006
440
root -43.0459 38.1898 -15.1467 -1.82568 -1.6225 0.801361
RightUpLeg -17.0874 -2.58125 -4.4081
RightLeg 4.18654 21.4764 -0.593053
RightFoot 4.5236 -2.1832 15.8008
RightToes -0.000541893 -0.000659172 -0.000493268
Spine 0.569263 0.217627 2.07686
Spine1 0.990244 0.453269 2.32182
HEad 28.225 10.0682 -12.7952
LeftShoulder1 -3.88251e-019 -0 -3.92111e-022
LeftArm -35.7784 8.08245 -84.6504
LeftForeArm 35.3715 2.27021 -0.0362684
LeftHand -0.739655 -4.39203 9.05255
RightShoulder 7.45443e-017 -2.42657e-020 1.96277e-018
RightArm -27.5949 -11.3505 73.5425
RightForeArm 30.8268 1.71899 3.84718
RightHand -1.39921 9.73643 -11.0755
LeftUpLeg 2.34685 -3.30843 -4.76684
LeftLeg 18.186 -12.2097 -4.12428
LeftFoot -17.5513 0.681112 10.5732
LeftToes 3.91355e-005 3.11907e-005 -4.10385e-006
441
root -43.7233 38.2598 -13.9613 -1.85198 -0.0864563 -0.899597
RightUpLeg -15.3255 -1.21745 -2.13871
RightLeg 4.80746 19.7086 -0.210683
RightFoot 7.4902 -2.12386 13.031
RightToes -0.000541893 -0.000659172 -0.000493268
Spine 0.40477 -0.186895 2.74326
Spine1 0.663408 -0.295244 3.75444
HEad 28.4127 12.5297 -12.8223
LeftShoulder1 -3.88251e-019 -0 -3.92111e-022
LeftArm -37.6511 9.98431 -83.4602
LeftForeArm 36.089 1.79734 2.34732
LeftHand -0.754306 -3.99533 9.59198
RightShoulder 7.45443e-017 -2.42657e-020 1.96277e-018
RightArm -27.3903 -11.6197 73.6342
RightForeArm 30.628 2.3074 4.36254
RightHand -1.40979 9.94644 -11.0116
LeftUpLeg 4.91803 -4.56897 -1.92092
LeftLeg 17.1226 -13.0385 -4.06338
LeftFoot -19.1315 0.749021 9.28553
LeftToes 3.91355e-005 3.11907e-005 -4.10385e-006
442
root -44.3479 38.3506 -12.846 -1.74865 1.4646 -3.47916
RightUpLeg -14.2773 0.592247 0.753821
RightLeg 6.62577 15.8405 0.343298
RightFoot 4.63987 -1.55959 11.2963
RightToes -0.000541893 -0.000659172 -0.000493268
Spine 0.269424 -0.46084 3.80709
Spine1 0.389478 -0.783419 5.96639
HEad 28.6275 14.4827 -13.3631
LeftShoulder1 -3.88251e-019 -0 -3.92111e-022
LeftArm -39.2565 11.6142 -83.2713
LeftForeArm 37.1382 1.72374 4.68436
LeftHand -0.702513 -3.39112 9.52875
RightShoulder 7.45443e-017 -2.42657e-020 1.96277e-018
RightArm -27.0051 -11.6775 73.0756
RightForeArm 30.6066 2.85571 4.98375
RightHand -1.40551 10.1306 -10.8563
LeftUpLeg 6.38193 -5.47313 1.98184
LeftLeg 17.28 -13.6389 -4.27718
LeftFoot -20.2393 0.753207 8.1055
LeftToes 3.91355e-005 3.11907e-005 -4.10385e-006
443
root -44.9437 38.4346 -11.8312 -1.72971 3.84451 -5.01456
RightUpLeg -13.3026 1.64755 2.62187
RightLeg 8.43844 12.4559 0.755379
RightFoot 1.67261 -1.17163 10.3576
RightToes -0.000541893 -0.000659172 -0.000493268
Spine 0.219992 -0.778236 4.61043
Spine1 0.259939 -1.36 7.38562
HEad 28.8908 15.4391 -13.8538
LeftShoulder1 -3.88251e-019 -0 -3.92111e-022
LeftArm -39.6225 13.327 -83.9092
LeftForeArm 37.7294 1.71793 5.26537
LeftHand -0.589274 -2.86285 8.5088
RightShoulder 7.45443e-017 -2.42657e-020 1.96277e-018
RightArm -26.7129 -11.3879 72.2675
RightForeArm 31.0052 2.95241 5.1379
RightHand -1.47385 10.1379 -11.3556
LeftUpLeg 6.06653 -7.05688 4.74195
LeftLeg 20.0887 -13.8099 -5.22477
LeftFoot -19.5973 0.612226 6.83194
LeftToes 3.91355e-005 3.11907e-005 -4.10385e-006
444
root -45.4831 38.5743 -10.9617 -1.84299 7.49994 -5.33926
RightUpLeg -11.7341 1.61845 3.38843
RightLeg 8.55442 9.24075 0.400091
RightFoot 0.632756 -0.915746 8.76731
RightToes -0.000541893 -0.000659172 -0.000493268
Spine 0.260755 -1.17276 5.08319
Spine1 0.287677 -2.06989 7.76933
HEad 29.4094 14.918 -13.5406
LeftShoulder1 -3.88251e-019 -0 -3.92111e-022
LeftArm -38.8345 14.4947 -84.1297
LeftForeArm 37.8327 1.72432 3.91003
LeftHand -0.48182 -3.00505 6.89773
RightShoulder 7.45443e-017 -2.42657e-020 1.96277e-018
RightArm -26.8362 -11.5516 71.8855
RightForeArm 30.6601 3.01779 4.95933
RightHand -1.54089 10.0227 -11.9363
LeftUpLeg 4.00188 -8.74598 6.14498
LeftLeg 25.2466 -13.6333 -6.60244
LeftFoot -17.0192 0.383826 5.66795
LeftToes 3.91355e-005 3.11907e-005 -4.10385e-006
445
root -45.9265 38.5809 -10.2251 -1.78927 11.1481 -5.82605
RightUpLeg -11.3062 1.93042 4.35594
RightLeg 9.89004 5.4686 -0.16831
RightFoot -1.41973 -0.606553 6.86753
RightToes -0.000541893 -0.000659172 -0.000493268
Spine 0.319156 -1.1233 5.57611
Spine1 0.372359 -1.88535 8.00299
HEad 29.7955 13.1036 -12.8284
LeftShoulder1 -3.88251e-019 -0 -3.92111e-022
LeftArm -37.9498 14.1542 -83.7688
LeftForeArm 37.5526 1.77066 2.4912
LeftHand -0.44535 -3.64962 5.97911
RightShoulder 7.45443e-017 -2.42657e-020 1.96277e-018
RightArm -27.2483 -12.3831 71.9153
RightForeArm 29.3525 3.27182 4.80284
RightHand -1.41563 9.80805 -11.1501
LeftUpLeg -0.51633 -8.76727 7.72804
LeftLeg 33.7094 -12.0856 -8.21557
LeftFoot -13.3792 0.166096 4.81249
LeftToes 3.91355e-005 3.11907e-005 -4.10385e-006
